<svg width="88" height="158" viewBox="0 0 88 158" fill="none" xmlns="http://www.w3.org/2000/svg">
<path fill-rule="evenodd" clip-rule="evenodd" d="M88 0.210449V127.579H70.5263V138.526H42.7368V133.474H44.2105V111.158H46.5263V133.474H65.8947V122.105H66.7368H80.6316V84.6315H46.1053V93.6841H44.2105V80.2104H83.1579V10.9473H61.0526V5.89466H59.1579V0.210449H88ZM0 0.210483V138.947H21.2632V133.053H4.8421V10.9473H26.9474V5.89469H28.8421V0.210483H0Z" fill="#2A2B28"/>
<rect x="18.7363" y="10.1053" width="42.5263" height="0.842105" fill="#2A2B28"/>
<rect x="18.7363" y="5.05264" width="51.3684" height="0.842105" fill="#2A2B28"/>
<rect x="0.210938" width="87.5789" height="0.842105" fill="#2A2B28"/>
<rect x="21.2627" y="138.947" width="0.842105" height="18.9474" fill="#2A2B28"/>
<rect x="35.5791" y="96.8421" width="0.842105" height="16" transform="rotate(-30 35.5791 96.8421)" fill="#2A2B28"/>
</svg>
