<svg width="130" height="37" viewBox="0 0 130 37" fill="none" xmlns="http://www.w3.org/2000/svg">
<g clip-path="url(#clip0_1279_9325)">
<path d="M113.551 16.8966V29.4324H101.575V16.8966H97.623V29.3018C97.623 30.3722 98.0451 31.3987 98.7964 32.1556C99.5476 32.9125 100.567 33.3377 101.629 33.3377H113.526V37H117.505V16.8966H113.551Z" fill="#2A2B28"/>
<path d="M89.126 16.8936L93.0717 16.8966V37H89.126V22.8638L77.0719 37H73.1172V16.8966H77.0719V31.0267L89.126 16.8936Z" fill="#2A2B28"/>
<path d="M39.8516 26.4746H27.8638V16.8966H23.9242V26.344C23.9242 26.874 24.0278 27.3988 24.2291 27.8885C24.4304 28.3781 24.7255 28.823 25.0975 29.1978C25.4695 29.5726 25.9111 29.8698 26.3971 30.0727C26.8831 30.2755 27.4041 30.3799 27.9301 30.3799H39.8275V32.9065H23.9121V37H39.9059C40.9604 36.9912 41.9683 36.5613 42.7086 35.8047C43.4489 35.0481 43.861 34.0265 43.8546 32.9642V32.8093C43.8779 32.6463 43.89 32.482 43.8908 32.3173V16.8966H39.8516V26.4746Z" fill="#2A2B28"/>
<path d="M16.1436 16.8966H-0.00390625V37.0061L4.25528 36.9788V30.2493H16.1436C16.6694 30.2497 17.1901 30.1456 17.6759 29.9431C18.1618 29.7406 18.6032 29.4436 18.975 29.069C19.3468 28.6944 19.6417 28.2497 19.8427 27.7602C20.0437 27.2708 20.147 26.7462 20.1466 26.2165V20.9294C20.1466 19.8599 19.7248 18.8341 18.9741 18.0778C18.2234 17.3215 17.2053 16.8966 16.1436 16.8966ZM16.3968 26.3106L3.92371 26.2529V20.8778H16.3968V26.3106Z" fill="#2A2B28"/>
<path d="M48.416 20.9294V32.9611C48.416 34.0315 48.8381 35.058 49.5893 35.8149C50.3406 36.5718 51.3595 36.997 52.422 36.997H68.3193V33.0188H52.3677V20.8717H68.3193V16.8936H52.422C51.3595 16.8936 50.3406 17.3188 49.5893 18.0756C48.8381 18.8325 48.416 19.859 48.416 20.9294Z" fill="#2A2B28"/>
<path d="M125.819 0L113.629 0.0303696V4.07535H126.072V16.8753H129.99V4.22719C129.992 3.67366 129.885 3.12524 129.677 2.61324C129.468 2.10123 129.161 1.63567 128.774 1.24314C128.386 0.85061 127.926 0.5388 127.419 0.325502C126.912 0.112204 126.368 0.00159288 125.819 0Z" fill="#AB1438"/>
</g>
<defs>
<clipPath id="clip0_1279_9325">
<rect width="130" height="37" fill="white"/>
</clipPath>
</defs>
</svg>
