<svg width="380" height="69" viewBox="0 0 380 69" fill="none" xmlns="http://www.w3.org/2000/svg">
<path d="M162.483 40.8853L146.604 68.8538H153.711L165.289 48.9272L176.889 68.3288L177.127 68.8538H182.88H183.379L183.926 68.0979L168.046 40.8853H162.483Z" fill="white"/>
<path d="M13.2649 52.1189H6.2521V40.8853H0V68.8538H6.2521V57.6412H13.2649L23.9624 68.8538H30.5711V67.237L18.8276 54.8695L30.5711 42.5021V40.8853H23.9624L13.2649 52.1189Z" fill="white"/>
<path d="M62.9962 63.3525H43.812V46.4495H62.9962V63.3525ZM62.9962 40.8852H43.9784C43.1451 40.8769 42.3183 41.0147 41.5457 41.2906C40.7732 41.5665 40.0702 41.975 39.4777 42.4925C38.8851 43.0101 38.4147 43.6263 38.0937 44.3055C37.7726 44.9848 37.6074 45.7135 37.6074 46.4495V63.2475C37.6074 64.7232 38.2711 66.1385 39.4526 67.182C40.634 68.2256 42.2363 68.8118 43.9071 68.8118H62.9249C64.5956 68.8118 66.198 68.2256 67.3794 67.182C68.5608 66.1385 69.2245 64.7232 69.2245 63.2475V46.4495C69.2245 44.9738 68.5608 43.5585 67.3794 42.515C66.198 41.4715 64.5956 40.8852 62.9249 40.8852" fill="white"/>
<path d="M75.1191 46.4076H87.8135V68.8538H94.0894V46.4076H106.784V40.8853H75.1191V46.4076Z" fill="white"/>
<path d="M112.775 68.8538H141.968V63.3314H119.028V57.6412H137.475V52.1188H119.028V46.4076H141.968V40.8853H112.775V68.8538Z" fill="white"/>
<path d="M214.377 63.3524H195.217V55.8774H214.377V63.3524ZM214.377 50.3551H195.217V40.9272H188.965V68.8747H214.354C215.187 68.8747 216.012 68.7288 216.781 68.4452C217.55 68.1616 218.248 67.7461 218.834 67.2227C219.419 66.6994 219.882 66.0785 220.194 65.3961C220.507 64.7138 220.663 63.9834 220.653 63.2474V55.8354C220.653 54.3633 219.993 52.9511 218.817 51.9082C217.64 50.8653 216.044 50.2766 214.377 50.2711" fill="white"/>
<path d="M254.292 52.1188H234.418V40.8853H228.166V68.8538H234.418V57.6412H254.292V68.8538H260.544V40.8853H254.292V52.1188Z" fill="white"/>
<path d="M276.043 60.6648V40.8853H269.791V68.8538H276.4L295.204 49.0952V68.8538H301.456V40.8853H294.847L276.043 60.6648Z" fill="white"/>
<path d="M323.969 52.1188H316.956V40.8853H310.704V68.8538H316.956V57.6412H323.969L334.643 68.8538H341.251V67.237L329.532 54.8695L341.251 42.5021V40.8853H334.643L323.969 52.1188Z" fill="white"/>
<path d="M373.391 40.8853L354.587 60.6648V40.8853H348.335V68.8538H354.944L373.747 49.0952V68.8538H380V40.8853H373.391Z" fill="white"/>
<path d="M179.766 0.0840454V17.4909H160.748V0.0840454H154.639V17.3229C154.645 18.8061 155.316 20.2267 156.506 21.2736C157.696 22.3204 159.307 22.9082 160.986 22.9082H179.814V27.9896H186.113V0.0840454H179.766Z" fill="white"/>
<path d="M141.089 0.0840454H147.341V27.9896H141.089V8.35701L122.024 27.9896H115.748V0.0840454H122.024V19.6956L141.089 0.0840454Z" fill="white"/>
<path d="M63.0922 13.3964H44.0744V0.0840454H37.846V13.2074C37.8523 14.6926 38.523 16.1154 39.712 17.1656C40.901 18.2157 42.5118 18.8082 44.1932 18.8137H63.0209V22.4043H37.8223V28.0735H63.1397C64.8064 28.0624 66.4001 27.4684 67.572 26.4216C68.7438 25.3747 69.3982 23.9604 69.3918 22.4882V22.2573C69.4142 22.0337 69.4142 21.8089 69.3918 21.5854V0.168053H62.9971L63.0922 13.3964Z" fill="white"/>
<path d="M25.9596 13.1654H6.20484V5.60631H25.9596V13.1654ZM25.5555 0.0839756H0.119141V27.9896H6.87046V18.6247H25.5555C27.2389 18.6247 28.8533 18.034 30.0436 16.9826C31.234 15.9313 31.9027 14.5053 31.9027 13.0184V5.60631C31.8964 4.12112 31.2257 2.69834 30.0367 1.64814C28.8477 0.597954 27.2369 0.00553147 25.5555 0" fill="white"/>
<path d="M76.6406 5.60636V22.4043C76.6469 23.8875 77.3184 25.3081 78.5081 26.3549C79.6977 27.4018 81.3085 27.9896 82.9878 27.9896H108.163V22.4043H82.8927V5.60636H108.163V0.0840454H82.9878C81.3064 0.0895769 79.6956 0.68203 78.5066 1.73222C77.3176 2.78241 76.6469 4.20516 76.6406 5.69034" fill="white"/>
</svg>
