<svg width="24" height="24" viewBox="0 0 24 24" fill="none" xmlns="http://www.w3.org/2000/svg">
<path d="M19 12.75L19.75 12.75L19.75 11.25L19 11.25L19 12.75ZM6 11.25L5.25 11.25L5.25 12.75L6 12.75L6 11.25ZM19 11.25L6 11.25L6 12.75L19 12.75L19 11.25Z" fill="white"/>
<path d="M11.4697 19.5303L12 20.0607L13.0607 19L12.5303 18.4697L11.4697 19.5303ZM5 12L4.46967 11.4697C4.17678 11.7626 4.17678 12.2374 4.46967 12.5303L5 12ZM12.5303 5.53033L13.0607 5L12 3.93934L11.4697 4.46967L12.5303 5.53033ZM12.5303 18.4697L5.53033 11.4697L4.46967 12.5303L11.4697 19.5303L12.5303 18.4697ZM5.53033 12.5303L12.5303 5.53033L11.4697 4.46967L4.46967 11.4697L5.53033 12.5303Z" fill="white"/>
</svg>
