<svg width="32" height="32" viewBox="0 0 32 32" fill="none" xmlns="http://www.w3.org/2000/svg">
<path d="M16 20.9994C18.7614 20.9994 21 18.7608 21 15.9994C21 13.238 18.7614 10.9994 16 10.9994C13.2386 10.9994 11 13.238 11 15.9994C11 18.7608 13.2386 20.9994 16 20.9994Z" stroke="#92AE59" stroke-width="1.5" stroke-linecap="round" stroke-linejoin="round"/>
<path d="M22.6353 25.9997C20.4075 27.4782 17.7497 28.1704 15.0836 27.9665C12.4176 27.7625 9.89606 26.6741 7.91907 24.8738C5.94207 23.0736 4.62289 20.6647 4.17083 18.0294C3.71877 15.3941 4.15973 12.6833 5.42374 10.3271C6.68775 7.97092 8.70241 6.10434 11.148 5.02353C13.5937 3.94273 16.3302 3.7096 18.9234 4.36115C21.5167 5.01269 23.818 6.51159 25.4624 8.62C27.1067 10.7284 27.9999 13.3256 28.0001 15.9994C28.0001 18.7608 27.0001 20.9994 24.5001 20.9994C22.0001 20.9994 21.0001 18.7608 21.0001 15.9994V10.9994" stroke="#92AE59" stroke-width="1.5" stroke-linecap="round" stroke-linejoin="round"/>
</svg>
