<svg width="16" height="14" viewBox="0 0 16 14"  fill="#92AE59" xmlns="http://www.w3.org/2000/svg">
<path d="M13.6973 2.06089C13.3612 1.72455 12.962 1.45775 12.5227 1.27572C12.0834 1.09369 11.6125 1 11.137 1C10.6614 1 10.1906 1.09369 9.75125 1.27572C9.31193 1.45775 8.91279 1.72455 8.57661 2.06089L7.87893 2.75857L7.18125 2.06089C6.5022 1.38184 5.58121 1.00035 4.62089 1.00035C3.66057 1.00035 2.73958 1.38184 2.06054 2.06089C1.38149 2.73994 1 3.66092 1 4.62124C1 5.58157 1.38149 6.50255 2.06054 7.1816L2.75822 7.87928L7.87893 13L12.9996 7.87928L13.6973 7.1816C14.0337 6.84543 14.3005 6.44628 14.4825 6.00697C14.6645 5.56765 14.7582 5.09678 14.7582 4.62124C14.7582 4.14571 14.6645 3.67484 14.4825 3.23552C14.3005 2.79621 14.0337 2.39706 13.6973 2.06089V2.06089Z" stroke="#92AE59" stroke-width="1.5" stroke-linecap="round" stroke-linejoin="round"/>
</svg>
