<svg width="32" height="32" viewBox="0 0 32 32" fill="none" xmlns="http://www.w3.org/2000/svg">
<path d="M19.9277 5C21.623 5.45592 23.1687 6.34928 24.41 7.59059C25.6513 8.8319 26.5446 10.3776 27.0006 12.0728" stroke="#92AE59" stroke-width="1.5" stroke-linecap="round" stroke-linejoin="round"/>
<path d="M18.8926 8.86465C19.9097 9.13821 20.8371 9.67422 21.5819 10.419C22.3267 11.1638 22.8627 12.0912 23.1363 13.1084" stroke="#92AE59" stroke-width="1.5" stroke-linecap="round" stroke-linejoin="round"/>
<path d="M11.5595 15.6019C12.5968 17.7226 14.3158 19.4338 16.4412 20.4614C16.5967 20.5351 16.7687 20.567 16.9403 20.554C17.1119 20.541 17.2771 20.4836 17.4198 20.3874L20.5492 18.3006C20.6877 18.2083 20.8469 18.152 21.0126 18.1368C21.1782 18.1215 21.3451 18.1479 21.498 18.2134L27.3526 20.7225C27.5515 20.807 27.7175 20.9538 27.8257 21.1409C27.9339 21.328 27.9783 21.5451 27.9524 21.7596C27.7673 23.2076 27.0608 24.5385 25.9652 25.5031C24.8695 26.4678 23.4598 26.9999 22 27C17.4913 27 13.1673 25.2089 9.97919 22.0208C6.79107 18.8327 5 14.5087 5 10C5.00008 8.54022 5.53224 7.13052 6.49685 6.03485C7.46146 4.93918 8.79237 4.23267 10.2404 4.04763C10.4549 4.02167 10.672 4.06612 10.8591 4.1743C11.0461 4.28248 11.193 4.44852 11.2775 4.6474L13.7888 10.5071C13.8537 10.6587 13.8802 10.824 13.8658 10.9883C13.8514 11.1525 13.7967 11.3107 13.7064 11.4487L11.6268 14.6261C11.5322 14.7691 11.4762 14.9341 11.4644 15.1051C11.4526 15.2762 11.4854 15.4473 11.5595 15.6019V15.6019Z" stroke="#92AE59" stroke-width="1.5" stroke-linecap="round" stroke-linejoin="round"/>
</svg>
