<svg width="24" height="24" viewBox="0 0 24 24" fill="none" xmlns="http://www.w3.org/2000/svg">
<path d="M13.875 16.1244L3.75 16.1244" stroke="#92AE59" stroke-width="1.5" stroke-linecap="round" stroke-linejoin="round"/>
<path d="M20.25 16.1244L17.625 16.1244" stroke="#92AE59" stroke-width="1.5" stroke-linecap="round" stroke-linejoin="round"/>
<path d="M15.75 17.9994C16.7855 17.9994 17.625 17.1599 17.625 16.1244C17.625 15.0889 16.7855 14.2494 15.75 14.2494C14.7145 14.2494 13.875 15.0889 13.875 16.1244C13.875 17.1599 14.7145 17.9994 15.75 17.9994Z" fill="#92AE59"/>
<path d="M7.875 7.8744L3.75 7.87433" stroke="#92AE59" stroke-width="1.5" stroke-linecap="round" stroke-linejoin="round"/>
<path d="M20.25 7.87433L11.625 7.8744" stroke="#92AE59" stroke-width="1.5" stroke-linecap="round" stroke-linejoin="round"/>
<path d="M9.75 9.74939C10.7855 9.74939 11.625 8.90992 11.625 7.87439C11.625 6.83886 10.7855 5.99939 9.75 5.99939C8.71447 5.99939 7.875 6.83886 7.875 7.87439C7.875 8.90992 8.71447 9.74939 9.75 9.74939Z" fill="#92AE59"/>
</svg>
